<svg id="Layer_1" data-name="Layer 1" xmlns="http://www.w3.org/2000/svg" viewBox="0 0 599.7 254.22"><polygon points="250.87 122.37 217.72 252.37 43.14 252.37 90.77 65.56 90.77 65.55 107.48 0 175.38 52.72 171.06 69.7 250.87 122.37" fill="#d8dcc4"/><polygon points="43.14 84.76 43.14 252.37 0 74.22 43.14 84.76" fill="#eee7d5"/><polygon points="90.77 65.55 90.77 65.56 43.14 252.37 43.14 48.06 90.77 65.55" fill="#c2d1b3"/><path id="path674886" d="M248.63,303.46h22.61v-39h16a55.89,55.89,0,0,0,16-2,35.32,35.32,0,0,0,13.1-6.77A29.15,29.15,0,0,0,325.1,244a40.87,40.87,0,0,0,3.16-16.13c0-10.65-3.31-19.73-9.5-26.06-6.77-7.06-16.7-10.66-29.38-10.66H248.63ZM286.07,243H271.24V212.6h16.85c5.47,0,9.93,1.44,12.81,3.89s4.32,6.19,4.32,11.08-1.44,8.5-4.17,11.09C297.88,241.54,292.84,243,286.07,243Z" transform="translate(27 -184.04)" fill="#eee7d5"/><path id="path674888" d="M370.81,304.47a43.28,43.28,0,0,0,16-3.17,42.82,42.82,0,0,0,13.1-8.78,44.62,44.62,0,0,0,8.78-13.11,40.58,40.58,0,0,0,3.17-16,40.06,40.06,0,0,0-3.17-16,42.86,42.86,0,0,0-8.78-13.11,44.7,44.7,0,0,0-13.1-8.78,41.89,41.89,0,0,0-32,0,40.66,40.66,0,0,0-21.89,21.89,42.63,42.63,0,0,0-3.17,16,43.23,43.23,0,0,0,3.17,16,40.66,40.66,0,0,0,21.89,21.89A43.23,43.23,0,0,0,370.81,304.47Zm0-60.48a19.44,19.44,0,1,1-19.44,19.44A19.54,19.54,0,0,1,370.81,244Z" transform="translate(27 -184.04)" fill="#eee7d5"/><path id="path674890" d="M477.42,303.46h18.29l27.65-80.21H500.61L486.78,265l-13.1-41.76H456.26L443.44,265l-14-41.76H406.72l27.79,80.21h17.86l12.53-39.74Z" transform="translate(27 -184.04)" fill="#eee7d5"/><path id="path674892" d="M547.5,303.46h0V268a25.23,25.23,0,0,1,25.2-25.2v-21.6a46.65,46.65,0,0,0-33.12,13.82,45.72,45.72,0,0,0-13.68,33v35.42Z" transform="translate(27 -184.04)" fill="#eee7d5"/><path id="path674894" d="M247.37,437.24H270v-39h16a55.81,55.81,0,0,0,16-2,35.49,35.49,0,0,0,13.11-6.76,29.22,29.22,0,0,0,8.78-11.67A40.7,40.7,0,0,0,327,361.64c0-10.65-3.31-19.72-9.51-26.06-6.76-7.06-16.7-10.66-29.37-10.66H247.37Zm37.44-60.48H270V346.38h16.85c5.47,0,9.94,1.44,12.82,3.89s4.32,6.19,4.32,11.09c0,4.75-1.44,8.49-4.18,11.08C296.61,375.32,291.57,376.76,284.81,376.76Z" transform="translate(27 -184.04)" fill="#eee7d5"/><path id="path674896" d="M331.39,413.2a42.82,42.82,0,0,0,8.78,13.1,42,42,0,0,0,13.1,8.78,41.89,41.89,0,0,0,32,0,41.88,41.88,0,0,0,13.11-8.78,42.82,42.82,0,0,0,8.78-13.1,40.11,40.11,0,0,0,3.17-16V327.37l-21.6-7.2v40.9a38,38,0,0,0-3.46-1.59,40.09,40.09,0,0,0-16-3.16,40.62,40.62,0,0,0-16,3.16,42,42,0,0,0-13.1,8.79,41.31,41.31,0,0,0-8.78,44.93Zm37.87-35.43a19.44,19.44,0,1,1-19.44,19.44A19.55,19.55,0,0,1,369.26,377.77Z" transform="translate(27 -184.04)" fill="#eee7d5"/><path id="path674898" d="M444.18,357.32v-.14a23,23,0,0,1,22.89-22.9v-21.6a45,45,0,0,0-17.42,3.6,40.64,40.64,0,0,0-14.11,9.51A42.81,42.81,0,0,0,426,339.9a44.68,44.68,0,0,0-3.45,17.28v80.06h21.6V377.48h22.89V357.32Z" transform="translate(27 -184.04)" fill="#eee7d5"/></svg>