<svg id="Layer_1" data-name="Layer 1" xmlns="http://www.w3.org/2000/svg" viewBox="0 0 400 556.36"><polygon points="247.49 0 0 0 0 556.36 400 556.36 400 152.51 247.49 0" fill="#d8dcc4"/><path d="M97.43,367.87V528.15l.75,0H466.86V367.86H97.43Z" transform="translate(-97.43 -142.74)" fill="#c2d1b3"/><polygon points="247.49 0 400 152.51 247.49 152.51 247.49 0" fill="#c2d1b3"/><path d="M159.61,408.67a4.92,4.92,0,0,1,4.8-4.93h27.45c19.45,0,32.25,10.34,32.25,27.33v.25c0,18.58-15.51,28.18-33.85,28.18H169.34v26.1a4.87,4.87,0,1,1-9.73,0Zm31,42c14.28,0,23.64-7.63,23.64-18.95v-.25c0-12.31-9.24-18.71-23.15-18.71H169.34v37.91Z" transform="translate(-97.43 -142.74)" fill="#f8fbf8"/><path d="M241.84,408.67a4.92,4.92,0,0,1,4.8-4.93h25.11c27.08,0,45.79,18.59,45.79,42.84v.25c0,24.25-18.71,43.08-45.79,43.08H246.64a4.92,4.92,0,0,1-4.8-4.92Zm29.91,72.25c21.79,0,35.7-14.77,35.7-33.85v-.24c0-19.08-13.91-34.1-35.7-34.1H251.57v68.19Z" transform="translate(-97.43 -142.74)" fill="#f8fbf8"/><path d="M338.11,408.67a4.91,4.91,0,0,1,4.8-4.93h53.3a4.42,4.42,0,0,1,4.43,4.44,4.52,4.52,0,0,1-4.43,4.55H347.83V443.5h42.84a4.44,4.44,0,0,1,0,8.87H347.83V485.6a4.86,4.86,0,1,1-9.72,0Z" transform="translate(-97.43 -142.74)" fill="#f8fbf8"/></svg>